{
	"asset":{
		"generator":"Khronos glTF Blender I/O v3.5.30",
		"version":"2.0"
	},
	"scene":0,
	"scenes":[
		{
			"name":"Scene",
			"nodes":[
				0
			]
		}
	],
	"nodes":[
		{
			"mesh":0,
			"name":"Retopo_Cylinder.004"
		}
	],
	"materials":[
		{
			"doubleSided":true,
			"name":"Material.001",
			"normalTexture":{
				"index":0
			},
			"pbrMetallicRoughness":{
				"baseColorTexture":{
					"index":1
				},
				"metallicRoughnessTexture":{
					"index":2
				}
			}
		},
		{
			"doubleSided":true,
			"name":"Material.002",
			"normalTexture":{
				"index":3
			},
			"pbrMetallicRoughness":{
				"baseColorTexture":{
					"index":4
				},
				"metallicRoughnessTexture":{
					"index":5
				}
			}
		},
		{
			"doubleSided":true,
			"name":"Material.004",
			"normalTexture":{
				"index":6
			},
			"pbrMetallicRoughness":{
				"baseColorTexture":{
					"index":7
				},
				"metallicRoughnessTexture":{
					"index":8
				}
			}
		},
		{
			"doubleSided":true,
			"name":"base",
			"normalTexture":{
				"index":9,
				"scale":4.099999904632568
			},
			"pbrMetallicRoughness":{
				"baseColorTexture":{
					"index":10
				},
				"metallicRoughnessTexture":{
					"index":11
				}
			}
		}
	],
	"meshes":[
		{
			"name":"mesh.001",
			"primitives":[
				{
					"attributes":{
						"POSITION":0,
						"TEXCOORD_0":1,
						"NORMAL":2
					},
					"indices":3,
					"material":0
				},
				{
					"attributes":{
						"POSITION":4,
						"TEXCOORD_0":5,
						"NORMAL":6
					},
					"indices":7,
					"material":1
				},
				{
					"attributes":{
						"POSITION":8,
						"TEXCOORD_0":9,
						"NORMAL":10
					},
					"indices":11,
					"material":2
				},
				{
					"attributes":{
						"POSITION":12,
						"TEXCOORD_0":13,
						"NORMAL":14
					},
					"indices":15,
					"material":3
				}
			]
		}
	],
	"textures":[
		{
			"sampler":0,
			"source":0
		},
		{
			"sampler":0,
			"source":1
		},
		{
			"sampler":0,
			"source":2
		},
		{
			"sampler":0,
			"source":3
		},
		{
			"sampler":0,
			"source":4
		},
		{
			"sampler":0,
			"source":5
		},
		{
			"sampler":0,
			"source":6
		},
		{
			"sampler":0,
			"source":7
		},
		{
			"sampler":0,
			"source":8
		},
		{
			"sampler":0,
			"source":9
		},
		{
			"sampler":0,
			"source":10
		},
		{
			"sampler":0,
			"source":11
		}
	],
	"images":[
		{
			"mimeType":"image/jpeg",
			"name":"Material.001_Normal_OpenGL_1003",
			"uri":"Material_001_Normal_OpenGL_1003.jpg"
		},
		{
			"mimeType":"image/jpeg",
			"name":"Material.001_Base_color_1003",
			"uri":"Material_001_Base_color_1003.jpg"
		},
		{
			"mimeType":"image/jpeg",
			"name":"Material.001_Metallic_1003-Material.001_Roughness_1003",
			"uri":"Material_001_Metallic_1003-Material_001_Roughness_1003.jpg"
		},
		{
			"mimeType":"image/jpeg",
			"name":"Material.002_Normal_OpenGL_1002",
			"uri":"Material_002_Normal_OpenGL_1002.jpg"
		},
		{
			"mimeType":"image/jpeg",
			"name":"Material.002_Base_color_1002",
			"uri":"Material_002_Base_color_1002.jpg"
		},
		{
			"mimeType":"image/jpeg",
			"name":"Material.002_Metallic_1002-Material.002_Roughness_1002",
			"uri":"Material_002_Metallic_1002-Material_002_Roughness_1002.jpg"
		},
		{
			"mimeType":"image/jpeg",
			"name":"Material.004_Normal_OpenGL_1004",
			"uri":"Material_004_Normal_OpenGL_1004.jpg"
		},
		{
			"mimeType":"image/jpeg",
			"name":"Material.004_Base_color_1004",
			"uri":"Material_004_Base_color_1004.jpg"
		},
		{
			"mimeType":"image/jpeg",
			"name":"Material.004_Metallic_1004-Material.004_Roughness_1004",
			"uri":"Material_004_Metallic_1004-Material_004_Roughness_1004.jpg"
		},
		{
			"mimeType":"image/jpeg",
			"name":"Material.005_Normal_OpenGL_1001",
			"uri":"Material_005_Normal_OpenGL_1001.jpg"
		},
		{
			"mimeType":"image/jpeg",
			"name":"Material.005_Base_color_1001",
			"uri":"Material_005_Base_color_1001.jpg"
		},
		{
			"mimeType":"image/jpeg",
			"name":"Material.005_Metallic_1001-Material.005_Roughness_1001",
			"uri":"Material_005_Metallic_1001-Material_005_Roughness_1001.jpg"
		}
	],
	"accessors":[
		{
			"bufferView":0,
			"componentType":5126,
			"count":5808,
			"max":[
				0.44911864399909973,
				2.0410706996917725,
				0.5880292057991028
			],
			"min":[
				-0.44911864399909973,
				1.476853370666504,
				-0.5880292057991028
			],
			"type":"VEC3"
		},
		{
			"bufferView":1,
			"componentType":5126,
			"count":5808,
			"type":"VEC2"
		},
		{
			"bufferView":2,
			"componentType":5126,
			"count":5808,
			"type":"VEC3"
		},
		{
			"bufferView":3,
			"componentType":5123,
			"count":32520,
			"type":"SCALAR"
		},
		{
			"bufferView":4,
			"componentType":5126,
			"count":7352,
			"max":[
				1.05973219871521,
				2.3406310081481934,
				0.6811395883560181
			],
			"min":[
				-1.0597246885299683,
				0.7010587453842163,
				-0.681145966053009
			],
			"type":"VEC3"
		},
		{
			"bufferView":5,
			"componentType":5126,
			"count":7352,
			"type":"VEC2"
		},
		{
			"bufferView":6,
			"componentType":5126,
			"count":7352,
			"type":"VEC3"
		},
		{
			"bufferView":7,
			"componentType":5123,
			"count":35484,
			"type":"SCALAR"
		},
		{
			"bufferView":8,
			"componentType":5126,
			"count":6879,
			"max":[
				0.7005789279937744,
				1.2146493196487427,
				0.10594264417886734
			],
			"min":[
				-1.1280900239944458,
				0.8599237203598022,
				-0.10592044144868851
			],
			"type":"VEC3"
		},
		{
			"bufferView":9,
			"componentType":5126,
			"count":6879,
			"type":"VEC2"
		},
		{
			"bufferView":10,
			"componentType":5126,
			"count":6879,
			"type":"VEC3"
		},
		{
			"bufferView":11,
			"componentType":5123,
			"count":34488,
			"type":"SCALAR"
		},
		{
			"bufferView":12,
			"componentType":5126,
			"count":4920,
			"max":[
				0.9813984632492065,
				0.7332334518432617,
				0.9802245497703552
			],
			"min":[
				-0.9813984632492065,
				-0.17144396901130676,
				-0.9802414178848267
			],
			"type":"VEC3"
		},
		{
			"bufferView":13,
			"componentType":5126,
			"count":4920,
			"type":"VEC2"
		},
		{
			"bufferView":14,
			"componentType":5126,
			"count":4920,
			"type":"VEC3"
		},
		{
			"bufferView":15,
			"componentType":5123,
			"count":26568,
			"type":"SCALAR"
		}
	],
	"bufferViews":[
		{
			"buffer":0,
			"byteLength":69696,
			"byteOffset":0,
			"target":34962
		},
		{
			"buffer":0,
			"byteLength":46464,
			"byteOffset":69696,
			"target":34962
		},
		{
			"buffer":0,
			"byteLength":69696,
			"byteOffset":116160,
			"target":34962
		},
		{
			"buffer":0,
			"byteLength":65040,
			"byteOffset":185856,
			"target":34963
		},
		{
			"buffer":0,
			"byteLength":88224,
			"byteOffset":250896,
			"target":34962
		},
		{
			"buffer":0,
			"byteLength":58816,
			"byteOffset":339120,
			"target":34962
		},
		{
			"buffer":0,
			"byteLength":88224,
			"byteOffset":397936,
			"target":34962
		},
		{
			"buffer":0,
			"byteLength":70968,
			"byteOffset":486160,
			"target":34963
		},
		{
			"buffer":0,
			"byteLength":82548,
			"byteOffset":557128,
			"target":34962
		},
		{
			"buffer":0,
			"byteLength":55032,
			"byteOffset":639676,
			"target":34962
		},
		{
			"buffer":0,
			"byteLength":82548,
			"byteOffset":694708,
			"target":34962
		},
		{
			"buffer":0,
			"byteLength":68976,
			"byteOffset":777256,
			"target":34963
		},
		{
			"buffer":0,
			"byteLength":59040,
			"byteOffset":846232,
			"target":34962
		},
		{
			"buffer":0,
			"byteLength":39360,
			"byteOffset":905272,
			"target":34962
		},
		{
			"buffer":0,
			"byteLength":59040,
			"byteOffset":944632,
			"target":34962
		},
		{
			"buffer":0,
			"byteLength":53136,
			"byteOffset":1003672,
			"target":34963
		}
	],
	"samplers":[
		{
			"magFilter":9729,
			"minFilter":9987
		}
	],
	"buffers":[
		{
			"byteLength":1056808,
			"uri":"pozo.bin"
		}
	]
}
