{
    "asset" : {
        "generator" : "Khronos glTF Blender I/O v3.4.50",
        "version" : "2.0"
    },
    "scene" : 0,
    "scenes" : [
        {
            "name" : "Scene",
            "nodes" : [
                0
            ]
        }
    ],
    "nodes" : [
        {
            "mesh" : 0,
            "name" : "Cylinder.003",
            "scale" : [
                4.35767126083374,
                4.35767126083374,
                4.35767126083374
            ],
            "translation" : [
                -1.3244478702545166,
                0.5086841583251953,
                -0.6361274719238281
            ]
        }
    ],
    "materials" : [
        {
            "doubleSided" : true,
            "name" : "Material.004",
            "pbrMetallicRoughness" : {
                "baseColorTexture" : {
                    "index" : 0
                },
                "metallicFactor" : 0,
                "roughnessFactor" : 0.8872727155685425
            }
        },
        {
            "doubleSided" : true,
            "name" : "Material.005",
            "pbrMetallicRoughness" : {
                "baseColorFactor" : [
                    0.10702288150787354,
                    0.20155614614486694,
                    0.16826938092708588,
                    1
                ],
                "metallicFactor" : 0,
                "roughnessFactor" : 0.5099999904632568
            }
        },
        {
            "doubleSided" : true,
            "name" : "Material.006",
            "pbrMetallicRoughness" : {
                "baseColorFactor" : [
                    0.10702308267354965,
                    0.20155633985996246,
                    0.16826939582824707,
                    1
                ],
                "metallicFactor" : 0,
                "roughnessFactor" : 0.3254545331001282
            }
        }
    ],
    "meshes" : [
        {
            "name" : "Cylinder.007",
            "primitives" : [
                {
                    "attributes" : {
                        "POSITION" : 0,
                        "TEXCOORD_0" : 1,
                        "NORMAL" : 2
                    },
                    "indices" : 3,
                    "material" : 0
                },
                {
                    "attributes" : {
                        "POSITION" : 4,
                        "TEXCOORD_0" : 5,
                        "NORMAL" : 6
                    },
                    "indices" : 7,
                    "material" : 1
                },
                {
                    "attributes" : {
                        "POSITION" : 8,
                        "TEXCOORD_0" : 9,
                        "NORMAL" : 10
                    },
                    "indices" : 11,
                    "material" : 2
                }
            ]
        }
    ],
    "textures" : [
        {
            "sampler" : 0,
            "source" : 0
        }
    ],
    "images" : [
        {
            "bufferView" : 4,
            "mimeType" : "image/png",
            "name" : "SHAMPOO BOTTLE"
        }
    ],
    "accessors" : [
        {
            "bufferView" : 0,
            "componentType" : 5126,
            "count" : 922,
            "max" : [
                0.027289407327771187,
                0.003823293140158057,
                0.021657664328813553
            ],
            "min" : [
                -0.03710734471678734,
                -0.08450757712125778,
                -0.021657638251781464
            ],
            "type" : "VEC3"
        },
        {
            "bufferView" : 1,
            "componentType" : 5126,
            "count" : 922,
            "type" : "VEC2"
        },
        {
            "bufferView" : 2,
            "componentType" : 5126,
            "count" : 922,
            "type" : "VEC3"
        },
        {
            "bufferView" : 3,
            "componentType" : 5123,
            "count" : 3888,
            "type" : "SCALAR"
        },
        {
            "bufferView" : 5,
            "componentType" : 5126,
            "count" : 967,
            "max" : [
                0.015447529964148998,
                0.11699333041906357,
                0.01544756256043911
            ],
            "min" : [
                -0.015447532758116722,
                0.08848952502012253,
                -0.03094794787466526
            ],
            "type" : "VEC3"
        },
        {
            "bufferView" : 6,
            "componentType" : 5126,
            "count" : 967,
            "type" : "VEC2"
        },
        {
            "bufferView" : 7,
            "componentType" : 5126,
            "count" : 967,
            "type" : "VEC3"
        },
        {
            "bufferView" : 8,
            "componentType" : 5123,
            "count" : 3948,
            "type" : "SCALAR"
        },
        {
            "bufferView" : 9,
            "componentType" : 5126,
            "count" : 1187,
            "max" : [
                0.03674386069178581,
                0.08995413035154343,
                0.022449379786849022
            ],
            "min" : [
                -0.03674386069178581,
                -0.11599557101726532,
                -0.022449320182204247
            ],
            "type" : "VEC3"
        },
        {
            "bufferView" : 10,
            "componentType" : 5126,
            "count" : 1187,
            "type" : "VEC2"
        },
        {
            "bufferView" : 11,
            "componentType" : 5126,
            "count" : 1187,
            "type" : "VEC3"
        },
        {
            "bufferView" : 12,
            "componentType" : 5123,
            "count" : 5160,
            "type" : "SCALAR"
        }
    ],
    "bufferViews" : [
        {
            "buffer" : 0,
            "byteLength" : 11064,
            "byteOffset" : 0,
            "target" : 34962
        },
        {
            "buffer" : 0,
            "byteLength" : 7376,
            "byteOffset" : 11064,
            "target" : 34962
        },
        {
            "buffer" : 0,
            "byteLength" : 11064,
            "byteOffset" : 18440,
            "target" : 34962
        },
        {
            "buffer" : 0,
            "byteLength" : 7776,
            "byteOffset" : 29504,
            "target" : 34963
        },
        {
            "buffer" : 0,
            "byteLength" : 339280,
            "byteOffset" : 37280
        },
        {
            "buffer" : 0,
            "byteLength" : 11604,
            "byteOffset" : 376560,
            "target" : 34962
        },
        {
            "buffer" : 0,
            "byteLength" : 7736,
            "byteOffset" : 388164,
            "target" : 34962
        },
        {
            "buffer" : 0,
            "byteLength" : 11604,
            "byteOffset" : 395900,
            "target" : 34962
        },
        {
            "buffer" : 0,
            "byteLength" : 7896,
            "byteOffset" : 407504,
            "target" : 34963
        },
        {
            "buffer" : 0,
            "byteLength" : 14244,
            "byteOffset" : 415400,
            "target" : 34962
        },
        {
            "buffer" : 0,
            "byteLength" : 9496,
            "byteOffset" : 429644,
            "target" : 34962
        },
        {
            "buffer" : 0,
            "byteLength" : 14244,
            "byteOffset" : 439140,
            "target" : 34962
        },
        {
            "buffer" : 0,
            "byteLength" : 10320,
            "byteOffset" : 453384,
            "target" : 34963
        }
    ],
    "samplers" : [
        {
            "magFilter" : 9729,
            "minFilter" : 9987
        }
    ],
    "buffers" : [
        {
            "byteLength" : 463704,
            "uri" : "data:application/octet-stream;base64,"
        }
    ]
}
