{
    "asset" : {
        "generator" : "Khronos glTF Blender I/O v3.4.50",
        "version" : "2.0"
    },
    "scene" : 0,
    "scenes" : [
        {
            "name" : "Scene",
            "nodes" : [
                0
            ]
        }
    ],
    "nodes" : [
        {
            "mesh" : 0,
            "name" : "Toga",
            "scale" : [
                1,
                0.7999999523162842,
                1
            ],
            "translation" : [
                -0.12847602367401123,
                0.00800000037997961,
                -0.40796732902526855
            ]
        }
    ],
    "materials" : [
        {
            "doubleSided" : true,
            "name" : "Material.003",
            "pbrMetallicRoughness" : {
                "baseColorFactor" : [
                    0.8000000715255737,
                    0,
                    0.011311028152704239,
                    1
                ],
                "metallicFactor" : 0,
                "roughnessFactor" : 0.5
            }
        }
    ],
    "meshes" : [
        {
            "name" : "Cube.009",
            "primitives" : [
                {
                    "attributes" : {
                        "POSITION" : 0,
                        "TEXCOORD_0" : 1,
                        "NORMAL" : 2
                    },
                    "indices" : 3,
                    "material" : 0
                }
            ]
        }
    ],
    "accessors" : [
        {
            "bufferView" : 0,
            "componentType" : 5126,
            "count" : 6545,
            "max" : [
                0.44101399183273315,
                0.7800702452659607,
                0.4509730339050293
            ],
            "min" : [
                -0.44101399183273315,
                -0.008842806331813335,
                -0.41361209750175476
            ],
            "type" : "VEC3"
        },
        {
            "bufferView" : 1,
            "componentType" : 5126,
            "count" : 6545,
            "type" : "VEC2"
        },
        {
            "bufferView" : 2,
            "componentType" : 5126,
            "count" : 6545,
            "type" : "VEC3"
        },
        {
            "bufferView" : 3,
            "componentType" : 5123,
            "count" : 27072,
            "type" : "SCALAR"
        }
    ],
    "bufferViews" : [
        {
            "buffer" : 0,
            "byteLength" : 78540,
            "byteOffset" : 0,
            "target" : 34962
        },
        {
            "buffer" : 0,
            "byteLength" : 52360,
            "byteOffset" : 78540,
            "target" : 34962
        },
        {
            "buffer" : 0,
            "byteLength" : 78540,
            "byteOffset" : 130900,
            "target" : 34962
        },
        {
            "buffer" : 0,
            "byteLength" : 54144,
            "byteOffset" : 209440,
            "target" : 34963
        }
    ],
    "buffers" : [
        {
            "byteLength" : 263584,
            "uri" : "data:application/octet-stream;base64,"
        }
    ]
}
